<svg xmlns="http://www.w3.org/2000/svg" viewBox="0 0 1619.56 331.2"><defs><style>.cls-1,.cls-2{fill:#fff;}.cls-2{font-size:200.54px;font-family:Poppins-Regular, Poppins;}</style></defs><title>Asset 1</title><g id="Layer_2" data-name="Layer 2"><g id="Layer_1-2" data-name="Layer 1"><path class="cls-1" d="M.07,71.5C.07,49.28.13,27.05,0,4.83,0,1.34.78.1,4.57.11,47.4.25,90.25-.38,133.07.4c30.57.55,58.31,10.2,80.26,32.43,27.9,28.25,27.34,68.11-.93,96-19,18.72-42.36,28.14-68.49,31.44-16,2-32.18,1.2-48.29,1.42-2.79,0-4.09-.5-4.08-3.77q.08-24.58-.38-49.19c-.06-3.45,1.32-3.92,4.31-4,13.49-.18,27,.82,40.49-.58a32.45,32.45,0,0,0,17.77-8c10.67-9.14,9.54-23.57-2.25-32.26a35,35,0,0,0-20.69-6.68c-17.8-.25-35.62,0-53.42-.15-3.05,0-3.88.89-3.85,3.87.15,13.64,0,27.29.12,40.93a5,5,0,0,1-3.2,5.26q-33.37,17-66.62,34.34C.72,143,0,142.55,0,139.1.12,116.56.07,94,.07,71.5Z"/><path class="cls-1" d="M73.49,175.19c0,13.33.09,26.67,0,40A29.17,29.17,0,0,0,82.63,237c18.5,18.3,54.21,17.16,71-2.45,5.4-6.33,9.21-13.42,8.63-22.41-.56-8.55,0-17.16-.17-25.74,0-2.75.4-4.1,3.69-4.08,22.1.14,44.21.07,66.31.1,1.5,0,3.68-.75,3.61,2.09-.33,14.08,1.16,28.23-.7,42.23-2.86,21.48-14.4,38.16-30.88,51.52-20.61,16.7-44.54,25.17-70.83,27.83C104.77,309,77.49,305.15,52,291.93c-24-12.47-42.1-30.42-49.64-57.33C.7,228.76.4,222.83.39,216.85c0-17,0-34-.07-51,0-3.75,1.41-5.53,5.74-7.19A296.1,296.1,0,0,0,60.48,131c9.72-6.28,13.09-6.08,13.1,2.34v41.84Z"/><text class="cls-2" transform="translate(311.04 216.49)">Bank of Ubec</text></g></g></svg>