<svg xmlns="http://www.w3.org/2000/svg" viewBox="0 0 235.91 306.44"><defs><style>.cls-1{fill:#fff;}</style></defs><title>Asset 1</title><g id="Layer_2" data-name="Layer 2"><g id="Layer_1-2" data-name="Layer 1"><path class="cls-1" d="M.07,71.5C.07,49.28.13,27.05,0,4.83,0,1.34.78.1,4.57.11,47.4.25,90.25-.38,133.07.4c30.57.55,58.31,10.2,80.26,32.43,27.9,28.25,27.34,68.11-.93,96-19,18.72-42.36,28.14-68.49,31.44-16,2-32.18,1.2-48.29,1.42-2.79,0-4.09-.5-4.08-3.77q.08-24.58-.38-49.19c-.06-3.45,1.32-3.92,4.31-4,13.49-.18,27,.82,40.49-.58a32.45,32.45,0,0,0,17.77-8c10.67-9.14,9.54-23.57-2.25-32.26a35,35,0,0,0-20.69-6.68c-17.8-.25-35.62,0-53.42-.15-3.05,0-3.88.89-3.85,3.87.15,13.64,0,27.29.12,40.93a5,5,0,0,1-3.2,5.26q-33.37,17-66.62,34.34C.72,143,0,142.55,0,139.1.12,116.56.07,94,.07,71.5Z"/><path class="cls-1" d="M73.49,174.65c0,13.34.09,26.67,0,40a29.18,29.18,0,0,0,9.17,21.8c18.5,18.29,54.21,17.15,71-2.46,5.4-6.33,9.21-13.41,8.63-22.41-.56-8.54,0-17.15-.17-25.73,0-2.75.4-4.1,3.69-4.08,22.1.14,44.21.06,66.31.1,1.5,0,3.68-.76,3.61,2.08-.33,14.08,1.16,28.23-.7,42.23-2.86,21.49-14.4,38.17-30.88,51.53-20.61,16.7-44.54,25.16-70.83,27.82-28.47,2.89-55.75-.91-81.26-14.14-24-12.47-42.1-30.42-49.64-57.33C.7,228.23.4,222.29.39,216.32c0-17,0-34-.07-51,0-3.76,1.41-5.54,5.74-7.2a295.48,295.48,0,0,0,54.42-27.62c9.72-6.28,13.09-6.07,13.1,2.35v41.83Z"/></g></g></svg>