<svg xmlns="http://www.w3.org/2000/svg" viewBox="0 0 775.89 151.84"><defs><style>.cls-1,.cls-2{fill:#0057ff;}.cls-2{font-size:98.1px;font-family:Poppins-Bold, Poppins;font-weight:700;}</style></defs><title>Asset 1</title><g id="Layer_2" data-name="Layer 2"><g id="Layer_1-2" data-name="Layer 1"><path class="cls-1" d="M0,27.58C0,19,.05,10.43,0,1.86,0,.52.3,0,1.76,0,18.28.1,34.81-.15,51.33.15c11.79.22,22.49,3.94,31,12.51,10.77,10.9,10.55,26.27-.35,37C74.6,56.9,65.59,60.53,55.51,61.8c-6.19.78-12.41.47-18.63.55-1.07,0-1.57-.19-1.57-1.45q0-9.49-.15-19c0-1.34.51-1.52,1.66-1.53,5.21-.07,10.42.31,15.62-.23a12.4,12.4,0,0,0,6.85-3.1C63.41,33.55,63,28,58.43,24.63a13.49,13.49,0,0,0-8-2.57c-6.87-.1-13.74,0-20.61-.06-1.17,0-1.49.34-1.48,1.49.05,5.26,0,10.53.05,15.79a1.94,1.94,0,0,1-1.24,2Q14.3,47.86,1.47,54.55C.28,55.17,0,55,0,53.65.05,45,0,36.27,0,27.58Z"/><path class="cls-1" d="M28.35,67.45c0,5.15,0,10.29,0,15.43a11.26,11.26,0,0,0,3.54,8.41c7.14,7.06,20.91,6.62,27.37-1,2.08-2.44,3.55-5.17,3.33-8.64-.22-3.3,0-6.62-.07-9.93,0-1.06.16-1.58,1.43-1.57,8.52,0,17.05,0,25.57,0,.58,0,1.42-.3,1.4.8-.13,5.43.44,10.89-.27,16.29-1.11,8.29-5.56,14.72-11.92,19.87-7.94,6.45-17.18,9.71-27.32,10.74-11,1.11-21.5-.36-31.34-5.46C10.78,107.67,3.81,100.75.9,90.37a25.13,25.13,0,0,1-.75-6.85c0-6.56,0-13.12,0-19.68a2.4,2.4,0,0,1,1.51-2.47c7.86-4,15.68-8,23.52-12,2.36-1.21,3.23-.67,3.23,2V67.45Z"/><text class="cls-2" transform="translate(122.92 92.39)">Bank of Ubec</text></g></g></svg>